<?xml version="1.0" standalone="no"?>
<!DOCTYPE svg PUBLIC "-//W3C//DTD SVG 1.1//EN" "http://www.w3.org/Graphics/SVG/1.1/DTD/svg11.dtd">
<svg xmlns="http://www.w3.org/2000/svg">
<metadata>Generated by Fontastic.me</metadata>
<defs>
<font id="new-petsites" horiz-adv-x="512">
<font-face font-family="new-petsites" units-per-em="512" ascent="480" descent="-32"/>
<missing-glyph horiz-adv-x="512" />

<glyph unicode="&#97;" d="M482 98c0-7-5-13-12-13l-249 0c-7 0-12 6-12 13l0 238 273 0z m-12 328l-30 0 0-27c0-10-8-19-18-19-11 0-19 9-19 19l0 27-115 0 0-27c0-10-8-19-19-19-10 0-18 9-18 19l0 27-30 0c-20 0-36-16-36-36l0-292c0-20 16-36 36-36l249 0c20 0 36 16 36 36l0 292c0 20-16 36-36 36z m-201-34c4 0 7 3 7 7l0 43c0 4-3 7-7 7-3 0-6-3-6-7l0-43c0-4 3-7 6-7m153 0c3 0 6 3 6 7l0 43c0 4-3 7-6 7-4 0-7-3-7-7l0-43c0-4 3-7 7-7m-120-119l20 0c1 0 2 1 2 2l0 19c0 2-1 3-2 3l-20 0c-1 0-2-1-2-3l0-19c0-1 1-2 2-2m35 0l19 0c2 0 3 1 3 2l0 19c0 2-1 3-3 3l-19 0c-1 0-3-1-3-3l0-19c0-1 2-2 3-2m35 0l19 0c1 0 3 1 3 2l0 19c0 2-2 3-3 3l-19 0c-2 0-3-1-3-3l0-19c0-1 1-2 3-2m34 0l20 0c1 0 2 1 2 2l0 19c0 2-1 3-2 3l-20 0c-1 0-2-1-2-3l0-19c0-1 1-2 2-2m35 0l19 0c2 0 3 1 3 2l0 19c0 2-1 3-3 3l-19 0c-1 0-3-1-3-3l0-19c0-1 2-2 3-2m-208-49l19 0c2 0 3 1 3 3l0 19c0 1-1 3-3 3l-19 0c-1 0-3-2-3-3l0-19c0-2 2-3 3-3m35 0l19 0c1 0 3 1 3 3l0 19c0 1-2 3-3 3l-19 0c-2 0-3-2-3-3l0-19c0-2 1-3 3-3m34 0l20 0c1 0 2 1 2 3l0 19c0 1-1 3-2 3l-20 0c-1 0-2-2-2-3l0-19c0-2 1-3 2-3m35 0l19 0c2 0 3 1 3 3l0 19c0 1-1 3-3 3l-19 0c-1 0-3-2-3-3l0-19c0-2 2-3 3-3m35 0l19 0c1 0 3 1 3 3l0 19c0 1-2 3-3 3l-19 0c-2 0-3-2-3-3l0-19c0-2 1-3 3-3m34 0l20 0c1 0 2 1 2 3l0 19c0 1-1 3-2 3l-20 0c-1 0-2-2-2-3l0-19c0-2 1-3 2-3m35 0l19 0c2 0 3 1 3 3l0 19c0 1-1 3-3 3l-19 0c-1 0-3-2-3-3l0-19c0-2 2-3 3-3m-208-49l19 0c2 0 3 2 3 3l0 19c0 2-1 3-3 3l-19 0c-1 0-3-1-3-3l0-19c0-1 2-3 3-3m35 0l19 0c1 0 3 2 3 3l0 19c0 2-2 3-3 3l-19 0c-2 0-3-1-3-3l0-19c0-1 1-3 3-3m34 0l20 0c1 0 2 2 2 3l0 19c0 2-1 3-2 3l-20 0c-1 0-2-1-2-3l0-19c0-1 1-3 2-3m35 0l19 0c2 0 3 2 3 3l0 19c0 2-1 3-3 3l-19 0c-1 0-3-1-3-3l0-19c0-1 2-3 3-3m35 0l19 0c1 0 3 2 3 3l0 19c0 2-2 3-3 3l-19 0c-2 0-3-1-3-3l0-19c0-1 1-3 3-3m34 0l20 0c1 0 2 2 2 3l0 19c0 2-1 3-2 3l-20 0c-1 0-2-1-2-3l0-19c0-1 1-3 2-3m35 0l19 0c2 0 3 2 3 3l0 19c0 2-1 3-3 3l-19 0c-1 0-3-1-3-3l0-19c0-1 2-3 3-3m-208-48l19 0c2 0 3 1 3 3l0 19c0 1-1 2-3 2l-19 0c-1 0-3-1-3-2l0-19c0-2 2-3 3-3m35 0l19 0c1 0 3 1 3 3l0 19c0 1-2 2-3 2l-19 0c-2 0-3-1-3-2l0-19c0-2 1-3 3-3m34 0l20 0c1 0 2 1 2 3l0 19c0 1-1 2-2 2l-20 0c-1 0-2-1-2-2l0-19c0-2 1-3 2-3m35 0l19 0c2 0 3 1 3 3l0 19c0 1-1 2-3 2l-19 0c-1 0-3-1-3-2l0-19c0-2 2-3 3-3m35 0l19 0c1 0 3 1 3 3l0 19c0 1-2 2-3 2l-19 0c-2 0-3-1-3-2l0-19c0-2 1-3 3-3m-226 271l-49 0 0 49c0 1 0 2-1 2-1 1-2 1-3 1l-35 0c-2 0-3-1-4-3l1-49-50 0c-1 0-3-2-3-4l0-36c0-2 2-3 4-3l48 0 1-49c0-2 1-4 3-4l35 0c2 0 4 2 4 4l0 49 49 0c1 0 2 0 3 1 0 0 1 1 1 2l0 36c0 1 0 2-1 3-1 0-2 1-3 1"/>
<glyph unicode="&#98;" d="M146 373l-49 0 0 49c0 1 0 2-1 2-1 1-2 1-3 1l-35 1c-2-1-3-2-4-4l1-49-50 0c-1 0-3-2-3-4l0-36c0-2 2-3 4-3l48 0 1-49c0-2 1-3 3-3l35 0c2 0 4 1 4 3l0 49 49 0c1 0 2 0 3 1 0 1 1 1 1 2l0 36c0 1 0 2-1 3-1 1-2 1-3 1m339-117c-41-18-94-32-153-32-59 0-114 14-155 32l-22-88 1 0-1-7c0-36 78-66 176-66 97 0 176 30 176 66l-1 7 1 0-22 88m-153-10c76 0 136 17 136 39 0 21-60 39-136 39-75 0-136-18-136-39 0-22 61-39 136-39"/>
<glyph unicode="&#99;" d="M146 365l-49 0 0 49c0 1 0 2-1 2-1 1-2 1-3 1l-35 0c-2 0-3-1-4-3l1-49-50 0c-1 0-3-2-3-4l0-36c0-2 2-3 4-3l48 0 1-49c0-2 1-4 3-4l35 0c2 0 4 2 4 4l0 49 49 0c1 0 2 0 3 1 0 0 1 1 1 2l0 36c0 1 0 2-1 3-1 0-2 1-3 1m221 10l-178-95c-43-23-60-77-37-120l5-9c23-43 77-60 120-37l178 95c44 23 60 77 37 120l-5 9c-23 43-77 60-120 37z m102-58c16-31 4-69-26-85l-89-47-64 119 89 47c31 17 69 5 85-26z"/>
<glyph unicode="&#100;" d="M289 256l122 0 0-204-122 0z m-188 0l124 0 0-204-124 0z m-21 78l145 0 0-58-145 0z m77 115c-1 3-2 11 12 22 3 3 9 7 14 7 19 0 39-47 50-92-36 18-73 43-76 63z m171 0c3 0 8-2 13-5 7-6 7-10 7-11-2-12-27-32-56-48 9 34 23 64 36 64z m-39-115l143 0 0-58-143 0z m161 35l-118 0c25 16 47 37 50 60 1 11-1 28-21 42-11 8-22 13-33 13-35 0-55-41-65-76-13 45-38 104-80 104-12 0-24-5-36-15-24-19-26-40-24-53 5-31 37-57 69-75l-130 0c-9 0-17-8-17-17l0-94c0-10 8-18 17-18l5 0 0-205c0-9 8-17 17-17l344 0c9 0 17 8 17 17l0 205 5 0c9 0 17 8 17 18l0 94c0 9-8 17-17 17z"/>
<glyph unicode="&#101;" d="M425 384l-157-140c-8-7-21-7-29 0l-156 140-13-14 156-141c16-14 40-14 56 0l156 141z m-105-170l105-87 12 16-104 87z m-145 16l-105-87 13-16 104 87z m-165 148l0-244c0-36 29-65 66-65l360 0c37 0 66 29 66 65l0 244c0 36-29 65-66 65l-360 0c-37 0-66-29-66-65z m39 0c0 14 12 26 27 26l360 0c15 0 27-12 27-26l0-244c0-14-12-26-27-26l-360 0c-15 0-27 12-27 26z"/>
<glyph unicode="&#102;" d="M324 76c-2 7-8 12-16 12l-37 0 0 63c-9-2-18-3-28-3-10 0-19 1-29 3l0-63-36 0c-8 0-15-5-17-12l-13-47c-1-5 0-11 3-15 3-4 8-7 14-7l156 0c10 0 17 8 17 17 0 3 0 5-1 7l-13 45m111 273c-7-27-26-48-46-51 0 1 0 1 1 2 0 1 0 1 0 2 1 4 2 8 3 12 0 1 0 2 0 3 1 4 1 8 2 12 0 1 0 2 0 2 0 5 0 10 0 14l0 77c3 0 5 1 7 1 2 0 5-1 7-1 23-6 35-40 26-73z m-110 31l-45-34 16-54c1-3 0-5-2-6 0-1-2-1-3-1-1 0-2 0-3 1l-47 32-47-32c-2-1-4-1-6 0-2 1-3 3-2 6l17 54-46 34c-2 2-3 4-2 6 1 2 3 4 5 4l57 1 19 53c1 3 3 4 5 4 2 0 4-1 5-4l19-53 57-1c3 0 5-2 5-4 1-2 0-4-2-6z m-277-31c-9 33 2 67 25 73 3 0 5 1 7 1 3 0 5-1 7-1l0-77c0-4 0-9 1-14 0 0 0-1 0-2 0-4 1-8 1-12 1-1 1-2 1-3 1-4 1-8 2-12 1-1 1-1 1-2 0-1 0-1 0-2-19 3-38 24-45 51z m368 99c-4 2-9 2-14 2-2 0-4 0-7 0l0 46c0 9-7 16-16 16l-276 0c-9 0-16-7-16-16l0-46c-2 0-4 0-7 0-4 0-9 0-14-2-38-10-58-57-45-106 11-43 44-72 78-72 1 0 3 0 5 0 1-3 2-5 4-8 0 0 0-1 0-1 2-4 5-8 7-11 0 0 0-1 1-1 2-4 4-7 7-11 0 0 0 0 0 0 6-7 12-14 18-20 1 0 1 0 1 0 3-3 6-6 10-8 0 0 0-1 0-1 14-11 30-19 47-24l1 0c4-2 8-3 13-4l0 0c4-1 9-1 14-2 0 0 0 0 0 0 5 0 9-1 14-1 5 0 10 1 14 1 1 0 1 0 1 0 4 1 9 1 14 2l0 0c4 1 8 2 13 4l0 0c17 5 33 13 47 24 0 0 1 1 1 1 3 2 6 5 10 8 0 0 0 0 0 0 7 6 13 13 18 20 0 0 0 0 0 0 3 4 5 7 8 11 0 0 0 1 1 1 2 3 4 7 6 11 0 0 1 1 1 1 1 3 3 5 4 8 1 0 3 0 5 0 33 0 66 29 77 72 13 49-7 96-45 106z"/>
<glyph unicode="&#103;" d="M292 319l-8-100c-1-13-3-22-7-29-4-7-10-11-18-11-9 0-16 4-19 11-3 7-5 16-6 29l-7 98c-1 19-2 33-2 41 0 12 4 22 10 29 7 7 15 10 26 10 13 0 22-4 27-14 4-8 6-20 6-36 0-9-1-19-2-28z m-9-228c-6-6-14-9-23-9-9 0-17 3-24 9-7 6-11 15-11 25 0 10 4 18 10 24 7 7 15 10 24 10 10 0 18-3 25-10 6-6 10-14 10-24 0-10-4-19-11-25z m222 17l-201 354c-10 18-28 28-48 28-20 0-38-10-48-28l-201-354c-10-17-9-38 0-54 10-17 28-28 48-28l402 0c20 0 38 11 48 28 9 16 9 37 0 54z"/>
<glyph unicode="&#104;" d="M373 348l-80 0 0 52c0 20 13 24 22 24l57 0 0 87-78 0c-86 0-106-65-106-106l0-57-50 0 0-90 50 0 0-252 105 0 0 252 71 0z"/>
<glyph unicode="&#105;" d="M63 204l123 0c10 0 18-8 18-18l0-123 263 263-141 141z m123-204c-3 0-5 1-7 1-7 3-12 10-12 18l0 148-148 0c-8 0-15 5-18 12-2 7-1 15 4 20l308 308c7 7 19 7 26 0l168-168c3-3 5-8 5-13 0-5-2-9-5-13l-308-307c-4-4-8-6-13-6z"/>
<glyph unicode="&#106;" d="M487 297l-74 0 0 74c0 6-5 11-11 11l-21 0c-5 0-10-5-10-11l0-74-74 0c-6 0-11-5-11-10l0-21c0-6 5-11 11-11l74 0 0-74c0-6 5-10 10-10l21 0c6 0 11 4 11 10l0 74 74 0c6 0 10 5 10 11l0 21c0 5-4 10-10 10z m-250-65c-15 11-30 27-30 32 0 9 1 14 21 29 27 21 41 48 41 77 0 26-8 49-21 65l10 0c2 0 4 1 6 2l29 21c4 3 6 7 4 12-1 4-5 7-10 7l-130 0c-15 0-29-3-43-8-48-16-81-57-81-98 0-59 45-104 106-106-1-4-1-9-1-13 0-9 2-18 7-26l-2 0c-58 0-111-29-131-72-5-11-8-22-8-33 0-11 3-21 8-31 13-22 40-40 76-49 19-5 39-7 60-7 19 0 37 2 54 7 52 15 85 53 85 98 0 42-13 67-50 93z m-165-97c0 31 39 58 84 58l1 0c10 0 19-2 28-4 3-3 6-5 9-6 20-15 34-24 38-39 1-3 1-7 1-11 0-38-28-57-85-57-43 0-76 26-76 59z m41 291c7 8 16 12 26 12l1 0c29-1 57-33 62-72 3-22-2-42-13-55-7-8-16-12-27-12 0 0 0 0 0 0l0 0c-29 1-57 35-62 73-3 22 2 41 13 54z"/>
<glyph unicode="&#107;" d="M357 304c-4-8-10-15-16-21-6-6-12-11-19-16-7-4-13-8-19-13-6-5-10-10-14-16-4-5-5-12-5-20l0-8c0-5-3-11-8-16-5-6-12-9-20-10l-2 0c-9 0-16 3-21 8-5 5-8 11-8 17 0 15 2 27 6 37 4 10 9 19 15 26 5 7 12 13 19 18 7 5 13 10 18 14 6 5 10 10 14 14 3 5 5 10 5 17 0 11-3 19-9 24-6 6-15 9-26 9-7 0-13-1-18-2-5-1-10-2-14-4-4-2-8-5-11-8-4-4-8-8-11-14-4-5-9-9-16-11-7-2-14-2-22 2-8 4-12 8-13 14-2 5-2 11 0 16 1 5 3 11 8 18 5 7 12 14 20 20 9 6 19 12 32 17 13 4 28 7 45 7 18 0 33-3 45-8 12-5 22-12 29-21 8-8 13-18 17-28 3-11 5-22 5-33 0-11-2-21-6-29z m-70-189c0-7-3-14-9-20-6-5-14-8-24-8-11 0-19 3-26 8-6 6-10 13-10 20l0 13c0 7 4 14 10 19 7 6 15 9 26 9 10 0 18-3 24-9 6-6 9-12 9-19z m-31 397c-141 0-256-115-256-256 0-141 115-256 256-256 141 0 256 115 256 256 0 141-115 256-256 256z"/>
<glyph unicode="&#108;" d="M427 52l-66 0 0 170-96 0 0-170-180 0 0 234 171 145 171-145z m75 244l-228 193c-10 9-26 9-36 0l-228-193c-12-10-13-27-3-39 10-12 27-13 39-3l4 3 0-223c0-9 8-17 17-17l378 0c9 0 17 8 17 17l0 223 4-3c5-5 12-7 18-7 8 0 16 3 21 10 10 12 9 29-3 39z"/>
<glyph unicode="&#109;" d="M479 172c-40 41-67 101-64 178 3 62-27 105-75 130-49 25-107 25-155 0-49-25-78-68-76-130 4-77-24-137-63-178l30-28c46 49 78 118 74 208-1 45 18 74 54 92 36 18 80 18 117 0 35-18 55-47 53-92-3-90 29-159 75-208z m-28 1c-102-83-275-83-377 0l-26-31c117-96 311-96 429 0z m-255-114c0-32 31-56 66-56 36 0 66 24 66 56l-41 0c0-7-10-15-25-15-14 0-25 8-25 15z"/>
<glyph unicode="&#110;" d="M401 59c0-9-7-17-17-17l-286 0c-10 0-17 8-17 17l0 403c0 10 7 17 17 17l191 0 0-112c0-5 3-8 7-8l105 0 0-1z m-15 315l-82 0 0 89z m44 1l-122 132c-3 3-7 5-12 5l-198 0c-28 0-50-22-50-50l0-403c0-27 22-50 50-50l286 0c28 0 50 23 50 50l0 305c0 4-2 8-4 11z m-90-231l-189 0c-3 0-5-4-5-8 0-5 2-8 5-8l189 0c3 0 6 3 6 8 0 4-3 8-6 8m0 75l-189 0c-3 0-5-3-5-8 0-4 2-8 5-8l189 0c3 0 6 4 6 8 0 5-3 8-6 8m0 87l-189 0c-3 0-5-3-5-8 0-4 2-8 5-8l189 0c3 0 6 4 6 8 0 5-3 8-6 8"/>
<glyph unicode="&#111;" d="M83 99l-7 38 120-18z m-45 246l44 8-20-138z m357 66l4-17-54 7z m56-111l-16-105-4-32-5-36-1-6-19 2-105 16-212 30 33 226 1 4 12-2 106-15 164-24 36-5 17-2z m40 75c-3 4-7 6-11 7l-46 7-8 45c-2 9-11 15-20 13l-166-30-129 18c-10 2-18-5-20-14l-4-32-72-14c-5-1-8-3-11-7-3-3-4-8-3-13l52-279c1-5 3-9 7-11 3-2 6-3 10-3 1 0 2 0 3 0l228 42 136-19c0-1 1-1 2-1 8 0 16 6 17 15l5 34 3 1c9 2 15 11 13 20l-7 41 24 168c1 4-1 9-3 12z m-298-95c18-3 35 10 37 28 3 17-10 34-27 37-18 2-35-10-38-28-2-18 10-35 28-37m192-23l-31-32-39 77-75-86c0 0-98 40-124-29l252-36 37-5-2 12-18 99"/>
<glyph unicode="&#113;" d="M176 268l0 208 142 0 0-208 3-9 33-1 0 236c0 5-2 9-5 13-4 3-8 5-13 5l-178 0c-10 0-18-8-18-18l0-236 33 1 3 9m248-58c-1 4-5 7-10 7l-61 2-35 1-15 0-8 0-3 11-35 100c-2 4-6 7-11 7-4 0-8-3-10-7l-35-100-4-11-7 0-15 0-36-1-60-2c-5 0-9-3-10-7-2-4 0-9 4-12l94-71-34-112c-2-4 0-9 4-12 1 0 2-1 3-1 0 0 0 0 1 0 0 0 1-1 2-1l0 0c1 0 1 0 2 1 0 0 1 0 1 0 1 0 2 1 3 1l97 67 98-67c2-1 4-2 6-2 2 0 4 1 6 2 4 3 6 8 4 12l-34 112 94 71c4 3 6 8 4 12"/>
<glyph unicode="&#114;" d="M95 347c0 59 48 107 107 107 59 0 107-48 107-107 0-59-48-107-107-107-59 0-107 48-107 107z m380-291l-124 166-9 0-9-9-13 18c29 30 47 71 47 116 0 91-74 165-165 165-91 0-165-74-165-165 0-91 74-165 165-165 27 0 52 6 75 18l17-19-10-10 0-5c0 0 122-153 129-161 8-7 25-4 25-4 0 0 25 14 37 26 12 12 0 29 0 29z"/>
<glyph unicode="&#115;" d="M370 212c-7-5-10-14-7-22l51-169-147 101c-6 5-16 5-22 0l-147-101 51 169c3 8 0 17-7 22l-142 107 179 4c8 0 15 5 18 13l59 167 59-167c3-8 10-13 18-13l179-4z"/>
<glyph unicode="&#116;" d="M473 95l-261 0c-10 0-18-8-18-18 0-10 8-18 18-18l261 0c10 0 18 8 18 18 0 10-8 18-18 18m0 175l-261 0c-10 0-18-8-18-18 0-10 8-18 18-18l261 0c10 0 18 8 18 18 0 10-8 18-18 18m-261 139l261 0c10 0 18 8 18 18 0 10-8 18-18 18l-261 0c-10 0-18-8-18-18 0-10 8-18 18-18m-165-121l72 0 0-72-72 0z m90 36l-108 0c-10 0-18-8-18-18l0-108c0-10 8-18 18-18l108 0c10 0 18 8 18 18l0 108c0 10-8 18-18 18z m-90-211l72 0 0-72-72 0z m90 36l-108 0c-10 0-18-8-18-18l0-108c0-10 8-18 18-18l108 0c10 0 18 8 18 18l0 108c0 10-8 18-18 18z m38 359c-7 6-19 4-24-3l-84-104-28 31c-6 7-17 8-24 2-4-3-6-7-6-12-1-4 1-9 4-12l41-47c4-3 9-5 14-5 0 0 0 0 0 0 5 0 10 2 13 6l97 120c3 4 5 8 4 13-1 5-3 9-7 11"/>
<glyph unicode="&#117;" d="M498 410c-18-8-38-13-58-16 21 13 37 33 44 56-19-11-41-20-64-24-18 19-44 32-74 32-55 0-100-46-100-101 0-8 0-16 2-23-84 4-158 44-208 105-9-15-14-32-14-51 0-35 18-66 45-84-16 1-32 5-45 13 0-1 0-1 0-1 0-49 34-90 81-99-9-3-18-4-27-4-7 0-13 1-19 2 13-40 50-69 94-70-34-27-78-43-125-43-8 0-16 0-24 1 44-29 98-45 155-45 185 0 287 153 287 287 0 4 0 9 0 13 19 14 36 32 50 52z"/>
<glyph unicode="&#118;" d="M276 15c-10 0-18 7-20 17l-79 353-47-184c-2-10-11-16-20-16l-89 0c-12 0-21 9-21 21 0 12 9 21 21 21l72 0 65 254c3 9 11 16 21 16 10 0 18-7 20-17l76-341 39 194c2 9 9 15 18 17 9 1 18-4 22-12l46-97 82 0c11 0 21-9 21-21 0-12-10-21-21-21l-95 0c-8 0-15 5-19 12l-25 52-46-231c-2-10-10-17-20-17l-1 0"/>
<glyph unicode="&#119;" d="M256 100l256 299-57 49-199-232-199 232-57-49 256-299"/>
<glyph unicode="&#120;" d="M255 41c-119 0-216 97-216 216 0 119 97 216 216 216 119 0 216-97 216-216 0-119-97-216-216-216z m0 471c-140 0-255-115-255-255 0-141 115-256 255-256 141 0 256 115 256 256 0 140-115 255-256 255z m112-240l-100 0 0 142c0 9-7 16-16 16-8 0-15-7-15-16l0-163c0-3 1-6 2-8 4-8 11-12 19-12l110 0c11 0 20 9 20 20 0 12-9 21-20 21"/>
<glyph unicode="&#121;" d="M123 89l269 0c4 0 7 4 7 8 0 4-3 7-7 7l-269 0c-4 0-7-3-7-7 0-4 3-8 7-8m0 74l269 0c4 0 7 3 7 8 0 4-3 7-7 7l-269 0c-4 0-7-3-7-7 0-5 3-8 7-8m0 74l269 0c4 0 7 3 7 7 0 5-3 8-7 8l-269 0c-4 0-7-3-7-8 0-4 3-7 7-7m337 256l-39 0 0-35 21 0 0-422-367 2 0 420 235 0 0 35-252 0c-10 0-18-8-18-18l0-455c0-9 8-17 18-17l402-2c10 0 18 8 18 17l0 457c0 10-8 18-18 18m-140-150c1 0 2 0 3 0 0 0 0 0 0 0 0 0 0 0 0 0 1 0 1 0 2 0 0 0 0 0 1 1 0 0 1 0 2 1l38 38 39-38c0-1 1-1 2-1 0-1 0-1 1-1 0 0 1 0 1 0 0 0 1 0 1 0 0 0 0 0 0 0 1 0 2 0 2 0 1 1 2 1 3 2 1 1 2 3 2 5l0 147c0 1-1 3-2 4-2 2-3 2-5 2l-87 0c-1 0-2 0-2 0 0 0-1 0-1 0-2-1-4-3-4-6l0-147c0-3 2-5 4-7m-194-27l268 0c4 0 8 3 8 7 0 4-4 8-8 8l-268 0c-4 0-8-4-8-8 0-4 4-7 8-7m151 73c3 0 5 4 5 8 0 4-2 7-5 7l-154 0c-2 0-5-3-5-7 0-4 3-8 5-8z"/>
<glyph unicode="&#122;" d="M319 256c-6 6-13 11-21 14-8 3-19 6-33 10l0 70c14-4 23-14 26-28 4-12 11-18 21-18 6 0 11 2 15 7 4 4 6 9 6 14 0 5-1 11-4 17-3 6-7 12-12 17-6 8-13 14-22 17-8 4-18 6-30 8l0 25c0 9-3 14-10 14-7 0-11-5-11-14l0-25c-23-2-40-10-52-22-12-12-18-28-18-47 0-15 3-27 9-37 6-9 14-16 24-21 10-6 22-10 37-14l0-78c-7 2-13 5-18 9-4 4-7 8-10 13-2 5-4 12-7 21-2 4-4 8-7 10-4 3-8 4-13 4-6 0-11-2-15-7-4-4-6-9-6-14 0-8 1-15 4-23 3-7 8-14 14-21 7-7 15-13 24-18 10-5 21-8 34-9l0-32c0-5 1-9 3-11 1-3 4-4 8-4 4 0 7 2 8 5 2 3 2 8 2 14l0 28c16 1 29 6 41 13 11 7 20 16 26 27 6 11 9 23 9 36 0 10-2 19-6 28-4 9-9 16-16 22z m-75 30c-10 4-17 8-22 13-5 4-7 11-7 20 0 9 2 16 8 21 5 4 12 8 21 11z m47-110c-6-6-15-11-26-13l0 73c12-3 20-8 26-13 6-5 9-13 9-23 0-9-3-17-9-24z m-36 333c-137 0-248-113-248-253 0-139 111-253 248-253 137 0 248 114 248 253 0 140-111 253-248 253z m0-470c-118 0-214 97-214 217 0 120 96 218 214 218 118 0 213-98 213-218 0-120-95-217-213-217z"/>
<glyph unicode="&#65;" d="M488 503l-312 0c-9 0-17-8-17-17l0-143 35 0 0 125 226 0-91-52c-5-3-9-9-9-15l0-273-126 0 0 97-35 0 0-115c0-9 8-17 17-17l144 0 0-67c0-7 3-12 9-16 3-1 6-2 9-2 3 0 6 1 8 2l147 84c7 2 13 8 13 16l0 376c0 9-8 17-18 17m-272-244c14 0 25 11 25 25 0 14-11 25-25 25l-94 0 0 46c0 4-2 7-6 9-3 2-8 2-11-1l-97-71c-3-2-5-5-5-8 0-3 2-7 5-9l97-70c2-2 4-2 6-2 2 0 4 0 5 1 4 2 6 5 6 9l0 46 94 0"/>
<glyph unicode="&#66;" d="M433 381l30 12 27 35-36 36-36-27-12-29-90-88 29-25 88 86m53-239l-163 139-5 5-46 39c5 27 15 99-26 139-27 27-62 41-100 41-10 0-19-1-28-3-3 0-5-2-6-4 0-3 0-5 2-7l61-60 12-58-49-49-60 12-61 60c-1 2-4 3-7 2-2-1-4-3-4-5-10-46 5-93 39-127 20-19 51-30 90-30l0 0c17 0 34 2 52 6l186-210c15-15 35-23 56-23 21 0 41 8 57 23 31 30 31 80 0 110z m-43-69c-8-7-20-7-28 0l0 0c-8 8-8 20 0 28 8 8 20 8 28 0l0 0c8-8 8-20 0-28z m-266 131c-8 7-19 7-26 0l-119-117c-7-7-7-18 0-25l46-46c7-6 19-6 26 0l115 114c8 7 8 18 0 25l-42 49"/>
<glyph unicode="&#67;" d="M443 371l-72 73c-3 3-7 5-12 5l-104 0c0 0 1 1 1 2 0 34-28 61-62 61-34 0-62-27-62-61l0-2-58 0c-10 0-17-8-17-18l0-409c0-9 7-17 17-17l357 0c10 0 17 8 17 17l0 336c0 5-2 9-5 13z m-276 80c0 14 12 25 27 25 15 0 27-11 27-25 0-1 0-2 0-2l-54 0z m248-412l-325 0 0 375 42 0 0-124c0-34 28-61 62-61 34 0 62 27 62 61l0 72c0 9-8 17-18 17-9 0-17-8-17-17l0-72c0-14-12-25-27-25-15 0-27 11-27 25l0 124 182 0 0-56c0-6 5-10 10-10l56 0z"/>
<glyph unicode="&#68;" d="M474 50c-25-25-65-25-90 0l-128 128-128-128c-25-25-65-25-90 0-25 25-25 65 0 90l128 128-128 128c-25 25-25 65 0 90 25 25 65 25 90 0l128-128 128 128c25 25 65 25 90 0 25-25 25-65 0-90l-128-128 128-128c25-25 25-65 0-90z"/>
<glyph unicode="&#112;" d="M374 317c0-36-7-62-21-77-14-15-33-22-57-22-2 0-4 1-4 3l0 30c0 2 2 3 4 3 19 0 28 13 28 40l0 12-45 0c-2 0-3 2-3 4l0 82c0 2 1 4 3 4l91 0c2 0 4-2 4-4z m-137 0c0-36-7-62-20-77-14-15-33-22-57-22-2 0-4 1-4 3l0 30c0 2 2 3 4 3 19 0 28 13 28 40l0 12-45 0c-2 0-3 2-3 4l0 82c0 2 1 4 3 4l91 0c2 0 3-2 3-4z m98 187l-158 0c-98 0-177-86-177-192 0-96 65-176 151-189l0-88c0-9 5-17 13-20 3-1 5-1 8-1 6 0 11 2 15 6l97 100 51 0c98 0 177 86 177 192 0 106-79 192-177 192z"/>
<glyph unicode="&#69;" d="M419 479l-39 0 0-35c0-14-11-24-24-24-13 0-24 10-24 24l0 35-151 0 0-35c0-14-11-24-24-24-14 0-25 10-25 24l0 35-39 0c-26 0-47-21-47-47l0-382c0-26 21-47 47-47l326 0c26 0 48 21 48 47l0 382c0 26-22 47-48 47z m17-429c0-9-8-16-17-16l-326 0c-9 0-16 7-16 16l0 312 359 0z m-279 385c4 0 9 4 9 9l0 56c0 5-5 9-9 9-5 0-9-4-9-9l0-56c0-5 4-9 9-9m199 0c5 0 9 4 9 9l0 56c0 5-4 9-9 9-5 0-9-4-9-9l0-56c0-5 4-9 9-9m-156-156l25 0c2 0 3 1 3 3l0 25c0 2-1 4-3 4l-25 0c-2 0-4-2-4-4l0-25c0-2 2-3 4-3m45 0l25 0c2 0 4 1 4 3l0 25c0 2-2 4-4 4l-25 0c-2 0-3-2-3-4l0-25c0-2 1-3 3-3m46 0l25 0c2 0 3 1 3 3l0 25c0 2-1 4-3 4l-25 0c-2 0-4-2-4-4l0-25c0-2 2-3 4-3m45 0l25 0c2 0 4 1 4 3l0 25c0 2-2 4-4 4l-25 0c-2 0-3-2-3-4l0-25c0-2 1-3 3-3m46 0l25 0c2 0 3 1 3 3l0 25c0 2-1 4-3 4l-25 0c-2 0-4-2-4-4l0-25c0-2 2-3 4-3m-273-64l25 0c2 0 4 2 4 4l0 25c0 2-2 3-4 3l-25 0c-2 0-4-1-4-3l0-25c0-2 2-4 4-4m45 0l26 0c1 0 3 2 3 4l0 25c0 2-2 3-3 3l-26 0c-2 0-3-1-3-3l0-25c0-2 1-4 3-4m46 0l25 0c2 0 3 2 3 4l0 25c0 2-1 3-3 3l-25 0c-2 0-4-1-4-3l0-25c0-2 2-4 4-4m45 0l25 0c2 0 4 2 4 4l0 25c0 2-2 3-4 3l-25 0c-2 0-3-1-3-3l0-25c0-2 1-4 3-4m46 0l25 0c2 0 3 2 3 4l0 25c0 2-1 3-3 3l-25 0c-2 0-4-1-4-3l0-25c0-2 2-4 4-4m45 0l25 0c2 0 4 2 4 4l0 25c0 2-2 3-4 3l-25 0c-2 0-3-1-3-3l0-25c0-2 1-4 3-4m46 0l25 0c2 0 3 2 3 4l0 25c0 2-1 3-3 3l-25 0c-2 0-4-1-4-3l0-25c0-2 2-4 4-4m-273-63l25 0c2 0 4 1 4 3l0 25c0 2-2 4-4 4l-25 0c-2 0-4-2-4-4l0-25c0-2 2-3 4-3m45 0l26 0c1 0 3 1 3 3l0 25c0 2-2 4-3 4l-26 0c-2 0-3-2-3-4l0-25c0-2 1-3 3-3m46 0l25 0c2 0 3 1 3 3l0 25c0 2-1 4-3 4l-25 0c-2 0-4-2-4-4l0-25c0-2 2-3 4-3m45 0l25 0c2 0 4 1 4 3l0 25c0 2-2 4-4 4l-25 0c-2 0-3-2-3-4l0-25c0-2 1-3 3-3m46 0l25 0c2 0 3 1 3 3l0 25c0 2-1 4-3 4l-25 0c-2 0-4-2-4-4l0-25c0-2 2-3 4-3m45 0l25 0c2 0 4 1 4 3l0 25c0 2-2 4-4 4l-25 0c-2 0-3-2-3-4l0-25c0-2 1-3 3-3m46 0l25 0c2 0 3 1 3 3l0 25c0 2-1 4-3 4l-25 0c-2 0-4-2-4-4l0-25c0-2 2-3 4-3m-273-64l25 0c2 0 4 2 4 4l0 25c0 2-2 3-4 3l-25 0c-2 0-4-1-4-3l0-25c0-2 2-4 4-4m45 0l26 0c1 0 3 2 3 4l0 25c0 2-2 3-3 3l-26 0c-2 0-3-1-3-3l0-25c0-2 1-4 3-4m46 0l25 0c2 0 3 2 3 4l0 25c0 2-1 3-3 3l-25 0c-2 0-4-1-4-3l0-25c0-2 2-4 4-4m45 0l25 0c2 0 4 2 4 4l0 25c0 2-2 3-4 3l-25 0c-2 0-3-1-3-3l0-25c0-2 1-4 3-4m46 0l25 0c2 0 3 2 3 4l0 25c0 2-1 3-3 3l-25 0c-2 0-4-1-4-3l0-25c0-2 2-4 4-4"/>
<glyph unicode="&#70;" d="M492 419l-75 72c-6 5-15 5-21 0l-341-325c-1-1-2-3-3-5l-51-120c-2-5-1-11 3-15 3-3 7-4 11-4 2 0 4 0 5 1l80 31 46 17c2 1 4 2 5 3l341 325c3 3 5 6 5 10 0 4-2 8-5 10z m-359-323l-50-19-25 24 20 47 329 313 25-24-313-298c-3-2-3-7 0-10 2-1 4-2 5-2 2 0 4 1 6 2l312 298 19-18z"/>
<glyph unicode="&#71;" d="M156 163l256 270 31-29c-3-3-3-9 1-12 3-4 10-4 13 0l31-29-256-271-31-33-15-16-16 16-31 33-114 121 31 29c4-4 10-4 14 0 3 3 3 9 0 12l31 30 114-121-36-39-16 15-15 15c10 10 23 16 38 16 14 0 28-6 38-16l-16-15-15-14z"/>
<glyph unicode="&#72;" d="M142 319c0-11 9-20 20-20 0 0 0 0 0 0 4-54 47-107 99-107 52 0 95 53 99 107 0 0 0 0 0 0 11 0 19 9 19 20 0 8-4 15-11 18 4 12 6 25 6 39 0 65-51 118-113 118-63 0-113-53-113-118 0-14 2-27 6-39-7-3-12-10-12-18m367-251c-47 44-103 75-164 90-1 1-3 2-5 2l-5 0c-2 0-4-1-5-2-19-9-44-15-69-15-26 0-51 6-69 15-2 1-3 2-5 2l-4 0c-1 0-2 0-3-1-62-14-120-46-167-91-2-2-3-5-3-8l0-37c0-5 5-10 10-10l481 0c6 0 11 5 11 10l0 37c0 3-1 6-3 8"/>
<glyph unicode="&#73;" d="M86 130l43 0c14 0 25 11 25 25l0 174c0 14-11 25-25 25l-43 0c-14 0-25-11-25-25l0-174c0-14 11-25 25-25m143 0l43 0c14 0 25 11 25 25l0 80c0 14-11 25-25 25l-43 0c-13 0-25-11-25-25l0-80c0-14 12-25 25-25m144 0l43 0c13 0 24 11 24 25l0 288c0 14-11 25-24 25l-43 0c-14 0-25-11-25-25l0-288c0-14 11-25 25-25m117-34l-470 0c-11 0-20-10-20-21l0-2c0-11 9-20 20-20l470 0c12 0 21 9 21 20l0 2c0 11-9 21-21 21"/>
<glyph unicode="&#74;" d="M449 489l-56 0 0 10c0 4-3 7-7 7-4 0-8-3-8-7l0-10-69 0 0 10c0 4-4 7-8 7-4 0-7-3-7-7l0-10-70 0 0 10c0 4-3 7-7 7-4 0-7-3-7-7l0-10-70 0 0 10c0 4-3 7-7 7-4 0-8-3-8-7l0-10-55 0c-10 0-19-8-19-18l0-450c0-10 9-18 19-18l379 0c11 0 19 8 19 18l0 450c0 10-8 18-19 18z m-63-89c4 0 7 3 7 7l0 17c7-3 12-9 12-17 0-11-9-19-19-19-11 0-19 8-19 19 0 8 4 14 11 17l0-17c0-4 4-7 8-7z m-85 0c4 0 8 3 8 7l0 17c7-3 11-9 11-17 0-11-8-19-19-19-10 0-19 8-19 19 0 8 5 14 12 17l0-17c0-4 3-7 7-7z m-84 0c4 0 7 3 7 7l0 17c7-3 12-9 12-17 0-11-8-19-19-19-10 0-19 8-19 19 0 8 5 14 12 17l0-17c0-4 3-7 7-7z m-84 0c4 0 7 3 7 7l0 17c7-3 12-9 12-17 0-11-9-19-19-19-11 0-19 8-19 19 0 8 5 14 11 17l0-17c0-4 4-7 8-7z m298-361l-343 0 0 413 37 0 0-13c-15-3-26-16-26-32 0-19 15-34 34-34 18 0 33 15 33 34 0 16-11 29-26 32l0 13 70 0 0-13c-15-3-27-16-27-32 0-19 15-34 34-34 19 0 34 15 34 34 0 16-12 29-27 32l0 13 70 0 0-13c-15-3-26-16-26-32 0-19 15-34 33-34 19 0 34 15 34 34 0 16-11 29-26 32l0 13 69 0 0-13c-15-3-26-16-26-32 0-19 15-34 34-34 18 0 33 15 33 34 0 16-11 29-26 32l0 13 38 0z m-46 67l-250 0c-4 0-8-3-8-7 0-4 4-7 8-7l250 0c4 0 7 3 7 7 0 4-3 7-7 7m0 68l-250 0c-4 0-8-4-8-8 0-4 4-7 8-7l250 0c4 0 7 3 7 7 0 4-3 8-7 8m0 67l-250 0c-4 0-8-3-8-7 0-4 4-7 8-7l250 0c4 0 7 3 7 7 0 4-3 7-7 7m-250 51l114 0c4 0 7 4 7 8 0 4-3 7-7 7l-114 0c-4 0-8-3-8-7 0-4 4-8 8-8"/>
<glyph unicode="&#75;" d="M361 132l-215 0c-4 0-7-3-7-7 0-4 3-7 7-7l215 0c4 0 7 3 7 7 0 4-3 7-7 7m0 58l-215 0c-4 0-7-3-7-7 0-4 3-7 7-7l215 0c4 0 7 3 7 7 0 4-3 7-7 7m0 58l-215 0c-4 0-7-3-7-7 0-4 3-7 7-7l215 0c4 0 7 3 7 7 0 4-3 7-7 7m-215 42l98 0c4 0 7 3 7 7 0 4-3 7-7 7l-98 0c-4 0-7-3-7-7 0-4 3-7 7-7m221 207c-3 3-7 5-12 5l-272 0c-9 0-17-8-17-17l0-467c0-10 8-18 17-18l341 0c9 0 17 8 17 18l0 400c0 5-2 9-5 12z m-266-462l0 432 236 0 0-57c0-6 4-10 10-10l59 0 0-365z"/>
<glyph unicode="&#76;" d="M87 265c-13 0-24-11-24-24l0-116c0-13 11-24 24-24l42 0c14 0 24 11 24 24l0 116c0 13-10 24-24 24l-42 0m141-59c-14 0-25-11-25-25l0-56c0-13 11-24 25-24l42 0c13 0 24 11 24 24l0 56c0 14-11 25-24 25l-42 0m182 129l-42 0c-13 0-24-11-24-24l0-186c0-13 11-24 24-24l42 0c14 0 24 11 24 24l0 186c0 13-10 24-24 24m74-267l-461 0c-11 0-20-9-20-20l0-1c0-11 9-20 20-20l461 0c11 0 20 9 20 20l0 1c0 11-9 20-20 20m-429 252l52 50 135-72c2-1 3-2 5-2 2 0 5 1 7 3l154 135 15-15c0 0 1 0 1 0 1 0 3 1 5 2 1 2 2 3 3 5 0 0 13 37 22 59 0 1 0 3-1 4 0 1-2 1-4 1 0 0 0 0 0 0l-61-23c-1 0-2-1-3-2-2-1-3-4-2-5 0-1 1-2 1-2l10-10-148-130-136 73c-4 2-8 1-12-2l-57-54c-4-4-4-11 0-15 4-3 10-4 14 0"/>
<glyph unicode="&#77;" d="M483 512l-471 0c-6 0-12-6-12-13l0-466c0-7 6-12 12-12l471 0c6 0 12 5 12 12l0 466c0 7-6 13-12 13z m-458-375l132 0 0-92-132 0z m0 117l132 0 0-92-132 0z m0 116l132 0 0-91-132 0z m156-233l133 0 0-92-133 0z m0 117l133 0 0-92-133 0z m0 116l133 0 0-91-133 0z m157-233l132 0 0-92-132 0z m0 117l132 0 0-92-132 0z m0 116l132 0 0-91-132 0z"/>
<glyph unicode="&#78;" d="M472 294l-315 0 0 26 0 33c0 1 0 3-1 4 0 0 0 0 0 0 0 1-1 2-1 3 0 0 0 0 0 1-1 0-2 1-2 2-1 1-3 2-4 2-4 3-10 2-14-1l-129-91c-4-3-6-7-6-11 0-5 2-9 6-11l129-92c2-2 5-2 8-2 1 0 2 0 3 0 1 0 2 1 3 1 5 3 8 7 8 12l0 60 282 0 0-44c0-18 15-32 33-32 18 0 33 14 33 32l0 76c0 17-15 32-33 32z"/>
<glyph unicode="&#79;" d="M400 36l-228 0c-1 0-2-1-3-2l-83-34 314 0c10 0 18 8 18 18 0 10-8 18-18 18m81 399l-71 73c-6 5-15 5-20 0l-325-332c-2-1-3-3-3-5l-49-122c-2-5-1-11 3-16 3-2 7-4 10-4 2 0 4 1 6 1l76 32 44 18c1 0 3 1 4 3l325 331c3 3 4 7 4 11 0 3-1 7-4 10z m-343-330l-46-19-24 24 19 48 313 319 23-24-297-304c-3-3-3-7 0-10 1-1 3-2 5-2 2 0 3 1 5 2l297 304 18-18z"/>
<glyph unicode="&#80;" d="M482 236c-15 0-28-12-28-27l0-129-395 0 0 129c0 15-12 27-28 27-15 0-28-12-28-27l0-157c0-15 13-27 28-27l451 0c16 0 28 12 28 27l0 157c0 15-12 27-28 27m-236-90c2-4 6-6 11-6 4 0 8 2 11 6l92 123c3 4 4 9 1 14-2 4-7 7-12 7l-60 0 0 164c0 17-14 31-32 31-18 0-32-14-32-31l0-164-60 0c-6 0-10-3-13-7-2-5-2-10 1-14l93-123"/>
<glyph unicode="&#81;" d="M490 408c0 0 0 1 0 1 0 1 0 1-1 2 0 0 0 1 0 1 0 1-1 1-1 2 0 0 0 1-1 1 0 1-1 1-2 2 0 0 0 0 0 1 0 0-1 0-1 1l-477 0c-1 0-1-1-1-1-1-1-1-1-1-1-1-1-1-1-2-2 0 0 0-1 0-1-1-1-1-1-1-2-1 0-1-1-1-1 0-1 0-1 0-2-1 0-1-1-1-1 0-1 0-2 0-3 0 0 0 0 0 0l0-284c0-10 8-18 17-18l456 0c10 0 17 8 17 18l0 284c0 1 0 2 0 3z m-34-277l-422 0 0 243 206-142c1-1 3-2 5-2 2 0 4 1 6 2l205 142z m-205 118c-2-1-4-2-6-2-2 0-4 1-5 2l-206 142 422 0z"/>
<glyph unicode="&#82;" d="M427 168l0-33-388 0 0 222 189-130c2-1 3-2 5-2 2 0 4 1 6 2l188 130 0-38 32-23 0 89c0 1 0 2 0 3 0 1-1 1-1 1 0 1 0 2 0 2 0 0 0 1-1 1 0 1 0 1-1 2 0 0 0 0 0 1 0 0-1 1-2 2 0 0 0 0 0 0-1 1-1 1-2 1l-438 0c-1 0-1 0-2-1 0 0 0 0 0 0-1-1-1-2-2-2 0-1 0-1 0-1-1-1-1-1-1-2 0 0-1-1-1-1 0-1 0-1 0-2 0 0 0 0 0-1-1-1-1-1-1-2 0 0 0-1 0-1l0-260c0-9 7-16 16-16l420 0c9 0 16 7 16 16l0 66z m0 204l-188-130c-2-1-4-1-6-1-2 0-3 0-5 1l-189 130z m76-137c2 2 4 5 4 8 0 3-2 6-4 8l-88 65c-3 2-7 2-10 0-3-1-5-5-5-8l0-43-70 0c-13 0-23-10-23-22 0-13 10-23 23-23l70 0 0-42c0-4 2-7 5-9 3-2 7-1 10 1l88 65"/>
<glyph unicode="&#83;" d="M510 256c0-6-3-11-7-14l-154-112c-3-2-7-3-10-3l0 0c-1 1-3 1-4 1-1 0-2 1-3 1-6 3-9 9-9 15l0 73-275 0c-21 0-39 17-39 39 0 21 18 39 39 39l275 0 0 31 0 41c0 2 0 3 0 4 0 1 0 1 1 1 0 2 0 2 1 3 0 1 0 1 0 1 1 1 2 2 3 3 0 0 0 0 0 0 1 1 2 2 4 3 5 3 12 3 17-1l154-112c4-3 7-8 7-13"/>
<glyph unicode="&#84;" d="M177 78c7 0 13 5 13 12l0 260c0 7-6 12-13 12-7 0-13-5-13-12l0-260c0-7 6-12 13-12m80 0c7 0 13 5 13 12l0 260c0 7-6 12-13 12-7 0-13-5-13-12l0-260c0-7 6-12 13-12m80 0c8 0 13 5 13 12l0 260c0 7-5 12-13 12-7 0-12-5-12-12l0-260c0-7 5-12 12-12m112 366l-93 0 0 27c0 20-17 37-38 37l-121 0c-21 0-38-17-38-37l0-27-93 0c-15 0-26-11-26-24 0-14 11-25 26-25l16 0 0-364c0-11 10-21 21-21l308 0c12 0 22 10 22 21l0 364 16 0c14 0 25 11 25 25 0 13-11 24-25 24z m-256 27c0 2 2 4 4 4l121 0c2 0 3-2 3-4l0-27-128 0z m-68-76l265 0 0-343-265 0z"/>
<glyph unicode="&#85;" d="M499 317l-80-110c-2-3-6-4-10-4-4 0-7 1-9 4l-80 110c-3 4-4 9-1 13 2 4 6 6 10 6l45 0c-10 16-22 31-37 44-35 29-79 43-125 39-45-4-86-25-116-60-29-34-43-78-39-123 3-46 25-87 60-116 34-29 79-43 124-39 45 3 85 24 115 58 10 11 27 12 39 2 12-10 13-27 3-39-39-44-93-72-152-77-60-5-119 14-165 52-47 39-75 94-80 154-5 60 13 118 52 164 39 46 94 75 154 80 7 0 13 0 20 0 53 0 104-18 146-53 28-23 49-53 63-86l53 0c5 0 9-2 11-6 2-4 2-9-1-13"/>
<glyph unicode="&#86;" d="M329 300l-124 0 0 36 0 47c0 2 0 3 0 5 0 0 0 1-1 1 0 1 0 2-1 3 0 1 0 1-1 1 0 2-1 3-2 4 0 0 0 0 0 0-2 1-3 2-5 3-6 3-13 3-19-1l-168-128c-5-4-8-9-8-15 0-7 3-12 8-16l168-127c4-3 8-4 12-4l0 0c1 0 2 0 3 1 2 0 3 0 4 1 7 3 10 10 10 17l0 83 121 0c57 0 123-40 149-101 9-22 67 190-146 190"/>
<glyph unicode="&#87;" d="M508 436l-63 64c-5 4-13 4-17 0l-284-289c-2-2-3-3-3-5l-42-106c-2-5-1-10 2-14 3-2 6-4 9-4 2 0 3 1 5 1l66 28 38 15c2 1 3 2 5 3l284 289c2 2 3 6 3 9 0 3-1 7-3 9z m-300-287l-41-17-21 21 17 42 273 278 21-21-260-265c-3-2-3-6 0-9 1-1 3-2 4-2 2 0 3 1 5 2l260 265 15-16z m211 152l0-262-379 0 0 386 288 0 31 32-334 0c-9 0-16-8-16-16l0-418c0-9 7-16 16-16l410 0c9 0 16 7 16 16l0 310-32-32"/>
<glyph unicode="&#88;" d="M366 27l-222 0 1 145-21 0 0-155c0-3 1-6 3-8 2-2 5-3 7-3l242 0 0 0c6 0 10 5 10 10l0 156-20 0 0-145m85 437l-68 0 0 9c0 3-1 6-3 8l-26 28c-2 2-5 3-7 3l-216 0 0 0c-5 0-10-5-10-10l0-38-68 0c-23 0-42-19-42-43l0-179c0-24 19-43 42-43l398 0c23 0 42 19 42 43l0 179c0 24-19 43-42 43z m-258-162l124 0 0-46-124 0z m170 100l-222 0 0 89 201 0 21-22z m58-143c-4 0-8 4-8 8 0 5 4 8 8 8 4 0 8-3 8-8 0-4-4-8-8-8z m-237-202l144 0c3 0 6 4 6 7 0 4-3 7-6 7l-144 0c-4 0-7-3-7-7 0-3 3-7 7-7m0 42l144 0c3 0 6 3 6 7 0 3-3 7-6 7l-144 0c-4 0-7-4-7-7 0-4 3-7 7-7m0 41l144 0c3 0 6 3 6 7 0 4-3 7-6 7l-144 0c-4 0-7-3-7-7 0-4 3-7 7-7"/>
<glyph unicode="&#89;" d="M461 49c-25-25-66-25-91 0l-130 124-129-124c-26-24-67-25-92 0-25 24-25 63 0 87l129 125-129 124c-25 24-25 63 0 87 25 25 66 25 92 0l129-124 130 124c25 25 66 25 91 0 26-24 25-63 0-87l-129-124 129-125c26-24 26-63 0-87"/>
<glyph unicode="&#90;" d="M505 275c-9 116-119 205-247 198-127-6-224-105-215-221 1-8 2-16 3-24l-46-125 137-8c43-28 96-44 152-41 128 6 224 105 216 221"/>
<glyph unicode="&#48;" d="M411 312l-27 0c0 1 0 3 0 4l0 58c0 73-61 133-136 133-74 0-135-60-135-133l0-58c0-1 0-3 0-4l-16 0c-25 0-45-20-45-44l0-213c0-25 20-45 45-45l314 0c25 0 45 20 45 45l0 213c0 24-20 44-45 44z m-229 4l0 58c0 36 30 65 66 65 37 0 67-29 67-65l0-58c0-1 0-3 0-4l-133 0c0 1 0 3 0 4z m239-261c0-6-4-11-10-11l-314 0c-6 0-10 5-10 11l0 213c0 5 4 10 10 10l314 0c6 0 10-5 10-10z m-167 118c-14 0-26-12-26-26l0-49 52 0 0 49c0 14-12 26-26 26"/>
<glyph unicode="&#49;" d="M362 473c-43 0-84-20-114-57-31 37-71 57-115 57-64 0-133-49-133-138 0-93 82-157 142-204 22-18 39-31 53-41 21-16 32-25 43-36 3-3 6-4 10-4 3 0 7 1 9 4 15 15 29 26 66 54l30 23c50 37 142 107 142 205 0 89-68 137-133 137z"/>
<glyph unicode="&#50;" d="M334 427l-289 0c-23 0-42-19-42-42l0-325c0-23 19-42 42-42l289 0c23 0 41 19 41 42l0 325c0 23-18 42-41 42z m12-134l0-233c0-7-6-12-12-12l-289 0c-6 0-12 5-12 12l0 325c0 6 6 12 12 12l289 0c6 0 12-6 12-12z m121 201l-288 0c-23 0-42-19-42-43l0-15 30 0 0 15c0 7 5 12 12 12l288 0c7 0 12-5 12-12l0-325c0-6-5-12-12-12l-82 0 0-30 82 0c23 0 42 19 42 42l0 325c0 24-19 43-42 43m-236-257l-8 0c0 0 1 0 1 1l0 15c0 20-16 36-36 36-20 0-36-16-36-36l0-15c0-1 0-1 1-1l-5 0c-6 0-12-6-12-12l0-57c0-7 6-12 12-12l83 0c6 0 11 5 11 12l0 57c0 6-5 12-11 12z m-35-58l-13 0 0 13c0 4 3 7 6 7 4 0 7-3 7-7z m-26 58c0 0 1 0 1 1l0 15c0 10 7 18 17 18 10 0 17-8 17-18l0-15c0-1 0-1 0-1z"/>
<glyph unicode="&#51;" d="M476 259l-21 0c0 1 0 2 0 3l0 98c0 57-47 104-104 104-58 0-104-47-104-104l0-10c0-14 12-26 26-26 15 0 27 12 27 26l0 10c0 28 23 51 51 51 28 0 51-23 51-51l0-98c0-1 0-2 0-3l-167 0c-19 0-35-16-35-35l0-165c0-19 16-35 35-35l241 0c19 0 34 16 34 35l0 165c0 19-15 35-34 35z m-101-167l-40 0 0 38c0 11 9 20 20 20 11 0 20-9 20-20z m-244 390c-7-49-14-59-67-66 53-7 60-17 67-66 7 49 14 59 67 66-53 7-60 17-67 66m-69-93c-6-42-12-51-57-57 45-5 51-14 57-56 6 42 12 51 58 56-46 6-52 15-58 57m90-49c-4-29-8-34-38-38 30-4 34-10 38-38 4 28 8 34 39 38-31 4-35 9-39 38"/>
<glyph unicode="&#52;" d="M497 327l-91 0c19 12 36 29 39 46 1 9-1 22-17 33-8 6-17 9-25 9-27 0-42-31-50-58-10 35-29 80-62 80-9 0-19-4-28-11-18-15-20-31-18-41 4-24 29-44 53-58l-100 0c-7 0-13-6-13-13l0-73c0-7 6-13 13-13l4 0 0-158c0-8 6-14 13-14l265 0c7 0 13 6 13 14l0 158 4 0c7 0 13 6 13 13l0 73c0 7-6 13-13 13z m-124-27l110 0 0-44-110 0z m30 89c2 0 6-2 10-4 6-5 5-8 5-9-1-9-20-24-43-37 7 27 18 50 28 50z m-132 0c0 2-1 8 9 16 3 3 7 6 11 6 15 0 30-36 39-71-28 14-56 33-59 49z m-60-89l113 0 0-44-113 0z m17-60l96 0 0-157-96 0z m145 0l94 0 0-157-94 0z m-257 213c-6-43-12-52-59-58 47-7 53-15 59-59 7 44 13 52 60 59-47 6-53 15-60 58m-61-82c-5-38-10-45-50-51 40-5 45-12 50-50 6 38 11 45 51 50-40 6-45 13-51 51m80-44c-3-25-7-31-34-34 27-3 31-9 34-34 4 25 7 31 34 34-27 3-30 9-34 34"/>
<glyph unicode="&#53;" d="M345 78c-2 8-10 13-18 13l-38 0 0 62c-10-1-20-2-30-2-10 0-20 1-30 2l0-62-38 0c-8 0-15-5-17-13l-14-46c-1-6 0-11 3-15 4-5 9-7 15-7l163 0c10 0 18 7 18 17 0 2 0 5-1 7l-13 44m98 370c-5 1-10 2-15 2-3 0-5 0-7 0l0 46c0 9-8 16-17 16l-289 0c-9 0-17-7-17-16l0-46c-2 0-5 0-7 0-5 0-10-1-15-2-40-10-61-58-47-106 12-43 46-72 81-72 2 0 3 0 5 0 2-3 3-5 4-8 1 0 1-1 1-1 2-4 5-8 7-11 0-1 0-1 1-1 2-4 5-7 8-11 0 0 0 0 0 0 6-7 12-14 19-20 0 0 0 0 0 0 3-3 7-6 11-9 0 0 0 0 0 0 15-11 32-19 50-24 0 0 0 0 0 0 4-2 9-3 13-4l0 0c5-1 10-1 15-2 0 0 0 0 0 0 5 0 10-1 15-1 5 0 10 1 15 1 0 0 0 0 0 0 5 1 10 1 15 2l0 0c5 1 9 2 14 4 0 0 0 0 0 0 18 5 35 13 49 24 1 0 1 0 1 0 4 3 7 6 10 9 1 0 1 0 1 0 7 6 13 13 19 20 0 0 0 0 0 0 3 4 5 7 8 11 0 0 0 0 1 1 2 3 4 7 6 11 1 0 1 1 1 1 2 3 3 5 4 8 2 0 4 0 6 0 35 0 69 29 81 72 13 48-8 96-47 106z m-386-99c-10 33 2 66 26 72 3 1 5 1 8 1 2 0 5 0 7 0l0-77c0-5 0-9 1-14 0 0 0-1 0-2 0-4 1-8 1-13 0 0 1-1 1-2 0-4 1-8 2-12 1-1 1-2 1-2 0-1 0-2 1-2-21 3-41 24-48 51z m405 0c-8-27-28-48-48-51 0 0 0 1 1 2 0 0 0 1 0 2 1 4 2 8 3 12 0 1 0 2 0 2 1 5 1 9 2 13 0 1 0 2 0 2 0 5 1 9 1 14l0 77c2 0 4 0 7 0 2 0 5 0 7-1 24-6 36-39 27-72z"/>
<glyph unicode="&#54;" d="M380 180c39 0 71 32 71 71 0 39-32 71-71 71-39 0-71-32-71-71 0-39 32-71 71-71z m0 47c-13 0-24 11-24 24 0 13 11 24 24 24 13 0 24-11 24-24 0-13-11-24-24-24z m-246 124c39 0 71 32 71 71 0 39-32 70-71 70-39 0-71-31-71-70 0-39 32-71 71-71z m0 47c-13 0-24 10-24 24 0 13 11 24 24 24 14 0 25-11 25-24 0-14-11-24-25-24z m0-388c39 0 71 32 71 71 0 39-32 71-71 71-39 0-71-32-71-71 0-39 32-71 71-71z m0 47c-13 0-24 11-24 24 0 13 11 24 24 24 14 0 25-11 25-24 0-13-11-24-25-24z m194 186l-168-115 26-39 168 115z m-168 133l167-117 27 38-167 117z"/>
<glyph unicode="&#55;" d="M296 253l169 169c15 15 15 41 0 56-16 16-41 16-56 0l-169-168-168 168c-16 16-41 16-56 0-16-15-16-41 0-56l168-169-168-168c-16-16-16-41 0-56 15-16 40-16 56 0l168 168 169-168c15-16 40-16 56 0 15 15 15 40 0 56z"/>
<glyph unicode="&#56;" d="M3 137c-2 2-3 3-3 4 0 1 0 2 1 2 1 2 2 2 4 2 1 0 2 0 4-1 34-20 72-35 113-46 42-11 85-16 129-16 28 0 57 2 86 7 30 5 59 13 88 23 2 1 4 2 6 3 2 0 5 1 7 2 2 1 4 1 6 1 2-1 3-2 4-3 1-1 1-2 1-4 0-2-1-4-3-5-4-3-7-5-11-7-3-2-7-4-10-6-26-14-55-25-87-32-32-7-63-11-92-11-48 0-92 8-133 23-41 16-78 37-110 64z m288 229c0 6 0 12 0 19-1 6-3 12-6 17-4 4-8 8-13 10-6 2-11 3-16 3l-4 0c-10-1-18-4-25-9-8-4-13-12-15-21 0-3-1-4-3-6-1-2-3-3-5-4l-51 6c-2 1-4 2-6 3-2 1-2 4-2 7 3 13 8 25 15 34 8 9 16 16 26 22 10 6 20 10 32 13 11 3 23 5 35 5l10 0c13 0 27-1 42-5 14-3 27-10 38-19 6-5 11-11 14-18 4-6 6-13 7-20 1-7 2-14 2-22l0-101c0-12 2-21 6-28 4-6 8-12 13-18 2-2 3-4 3-6 0-3-1-5-3-6-5-5-12-10-20-16-8-6-15-11-20-16-4-2-8-2-14 0-8 7-14 12-17 16l-13 14c-8-8-17-14-25-19-8-5-16-8-24-11-12-2-24-3-38-3-22 0-40 6-55 18-15 13-22 31-22 56 0 20 5 37 15 50 10 14 24 24 41 31 9 4 18 7 28 9 10 2 20 3 31 4 7 1 14 2 20 2 7 1 13 1 19 2z m0-47c-7 0-14 0-20-1-7 0-13-1-19-2-11-3-21-9-28-16-8-7-12-17-12-31 0-11 3-19 9-26 5-7 13-10 23-10 2 0 3 0 5 0 1 1 2 1 3 1 13 3 22 10 29 22 6 9 9 17 9 26 1 8 1 17 1 27z m170-248c-2-2-4-2-6-2-2 1-2 3-2 5l6 14c3 6 5 12 7 17 2 6 3 11 3 16 1 4 1 8-1 10-3 3-8 5-17 5l-5 0c-7 0-14 0-21-1-4 0-7-1-11-1-3 0-6 0-9-1-3 0-4 1-5 2 0 2 1 3 4 5 6 4 13 7 21 10 7 1 15 3 22 3 4 1 8 1 12 1 3 0 6 0 9 0 7-1 12-2 17-3 4-1 7-2 9-3 0-1 0-2 1-3 0-2 1-3 1-5l0-3c0-4-1-9-3-15-1-6-4-12-6-18-3-6-6-12-11-18-4-6-9-11-15-15z"/>
<glyph unicode="&#57;" d="M121 24l-107 0 0 320 107 0z m-54 363l0 0c-36 0-59 25-59 55 0 32 24 56 60 56 36 0 59-24 60-56 0-30-24-55-61-55z m436-363l-106 0 0 171c0 43-15 72-54 72-29 0-46-19-54-39-3-6-4-16-4-25l0-179-106 0c0 0 2 290 0 320l106 0 0-46c15 22 40 53 96 53 70 0 122-46 122-144l0-183z"/>
</font>
</defs>
</svg>
